# xmcd
#
# Track frame offsets:
#	150
#	13078
#	28098
#	39590
#	55768
#	65290
#	78120
#	94190
#	100555
#	111040
#	119843
#	162003
#	171298
#	178940
#	188750
#	199358
#	205598
#	216960
#	224563
#	242943
#	251265
#	257438
#	274570
#	291733
#	306553
#
# Disc length: 4288 seconds
#
# Revision: 0
# Processed by: cddbd v1.5.2PL0 Copyright (c) Steve Scherf et al.
# Submitted via: EasyCDDAExtractor 16.0.6.1
#
DISCID=7410be19
DTITLE=Νταλάρας Γιώργος - Τα τραγούδια μου-Γ. Νταλάρας
DYEAR=1988
DGENRE=Ποικίλη
TTITLE0=Νταλάρας Γιώργος - Θέλω να τα πω [Ά. Πάνου]
TTITLE1=Νταλάρας Γιώργος - Χαροκόπου 1942-1953 (Στις παράγκες) [Ά. Πάνου]
TTITLE2=Νταλάρας Γιώργος - Πέντε χρόνια δικασμένος (Η φωνή του αργιλέ) [Β. Παπ
TTITLE2=άζογλου]
TTITLE3=Νταλάρας Γιώργος - Ο ξεμάγκας (Βαρέθηκα τον αργιλέ) [Β. Παπάζογλου]
TTITLE4=Στανίση Κατερίνα-Νταλάρας Γιώργος - Άλλα μού λέν' τα μάτια σου [Θ. Δερ
TTITLE4=βενιώτη-Κ. Μάνεση]
TTITLE5=Νταλάρας Γιώργος - Χαϊδάρι [Μάρκου κ Στέλιου Βαμβακάρη]
TTITLE6=Νταλάρας Γιώργος - Το γράμμα [Γ. Ζαμπέτα-Γ. Μητσάκη]
TTITLE7=Νταλάρας Γιώργος - Αναστενάζω, βγαίνει φωτιά [Σ. Καζαντζίδη-Σ. Βαρτάνη
TTITLE7=]
TTITLE8=Νταλάρας Γιώργος - Τώρα κλαις [Α. Καλδάρα]
TTITLE9=Νταλάρας Γιώργος-Στανίση Κατερίνα - Καρδιά πληγωμένη [Γ. Λαύκα]
TTITLE10=Στανίση Κατερίνα-Νταλάρας Γιώργος - Φύγε κι άσε με [Π. Γαβαλά-Β. Καρα
TTITLE10=τζή-Α. Κουλούρη]
TTITLE11=Νταλάρας Γιώργος-Στανίση Κατερίνα - Οι κυβερνήσεις πέφτουνε, μα η αγά
TTITLE11=πη μένει [Χ. Νικολόπουλου-Μ. Ρασούλη]
TTITLE12=Νταλάρας Γιώργος - Μη μού θυμώνεις μάτια μου [Σ. Κουγιουμτζή]
TTITLE13=Νταλάρας Γιώργος - Αχ χελιδόνι μου [Μ. Λοΐζου-Λ. Παπαδόπουλου]
TTITLE14=Νταλάρας Γιώργος - Του κάτω κόσμου τα πουλιά [Σ. Κουγιουμτζή-Μ. Ελευθ
TTITLE14=ερίου]
TTITLE15=Νταλάρας Γιώργος - Ήταν πέντε, ήταν έξη [Σ. Κουγιουμτζή]
TTITLE16=Νταλάρας Γιώργος - Όλα καλά [Σ. Κουγιουμτζή]
TTITLE17=Νταλάρας Γιώργος - Η φαντασία [Α. Καλδάρα-Ε. Παπαγιαννοπούλου]
TTITLE18=Νταλάρας Γιώργος - Αχ ο μπαγλαμάς [Α. Καλδάρα-Λ. Παπαδόπουλου]
TTITLE19=Νταλάρας Γιώργος - Μέσ' στου Βοσπόρου τα στενά [Α. Καλδάρα-Πυθαγόρα]
TTITLE20=Νταλάρας Γιώργος - Γιορτή Ζεϊμπέκηδων [Α. Καλδάρα-Πυθαγόρα]
TTITLE21=Νταλάρας Γιώργος - Αγάπη [Μ. Θεοδωράκη-Κ. Τριπολίτη]
TTITLE22=Νταλάρας Γιώργος - Ξημερώνει [Μ. Θεοδωράκη-Κ. Τριπολίτη]
TTITLE23=Νταλάρας Γιώργος - Πάγωσε η τσιμινιέρα [Μ. Λοΐζου-Φ. Λάδη]
TTITLE24=Νταλάρας Γιώργος - Παραπονεμένα λόγια [Γ. Μαρκόπουλου-Μ. Ελευθερίου]
EXTD=
EXTT0=
EXTT1=
EXTT2=
EXTT3=
EXTT4=
EXTT5=
EXTT6=
EXTT7=
EXTT8=
EXTT9=
EXTT10=
EXTT11=
EXTT12=
EXTT13=
EXTT14=
EXTT15=
EXTT16=
EXTT17=
EXTT18=
EXTT19=
EXTT20=
EXTT21=
EXTT22=
EXTT23=
EXTT24=
PLAYORDER=
